<svg width="510" height="343" viewBox="0 0 510 343" fill="none" xmlns="http://www.w3.org/2000/svg">
<path d="M223.703 0.92744C269.21 -4.37923 316.477 13.3274 346.73 47.8741C362.917 65.9674 374.477 88.3541 379.837 112.034C396.877 110.194 413.957 110.914 430.343 116.234C450.917 122.501 469.397 134.914 482.783 151.767C495.703 168.087 504.837 187.687 508.423 208.221C511.797 228.994 509.557 250.461 499.157 268.994C490.157 284.807 475.877 296.407 459.357 303.741C435.29 314.367 408.423 316.861 382.383 315.714C370.863 315.741 359.943 313.661 348.543 312.674C334.383 323.314 317.25 330.394 300.317 335.287C254.05 348.007 202.61 343.767 159.57 322.261C137.077 326.941 113.957 325.621 91.7166 320.167C66.17 313.674 41.8633 300.861 24.1433 281.074C12.3166 268.287 4.96997 251.927 1.71663 234.927C-2.51003 211.581 1.11664 187.007 12.0633 165.954C20.89 148.794 33.9166 134.114 50.9433 124.794C65.6633 116.874 83.1566 114.074 99.6233 116.887C105.903 82.6874 124.637 51.2608 152.197 29.9941C172.69 13.9808 197.837 3.74077 223.703 0.92744Z" fill="#2E2F33"/>
<path d="M324.663 45.9142C357.237 74.2075 375.223 119.447 366.797 162.274C347.77 161.474 328.81 164.794 311.877 173.728C282.663 155.634 243.103 155.621 213.023 171.674C199.13 162.528 182.997 155.981 166.357 154.421C148.343 153.021 130.477 154.861 114.037 162.714C107.197 129.914 116.597 94.1542 135.997 67.1808C151.25 46.0742 173.103 29.7008 197.703 21.1008C240.597 6.03417 290.69 15.6342 324.663 45.9142Z" fill="#FFC72A"/>
<path d="M455.183 144.688C473.503 158.541 486.397 179.794 492.33 201.821C497.33 220.528 497.09 240.794 488.623 258.461C482.637 271.074 472.437 280.834 460.277 287.474C439.543 298.901 413.69 302.008 390.357 301.461C376.383 301.848 362.85 299.514 349.01 298.234C343.157 297.301 340.303 301.608 335.743 304.314C313.73 318.434 287.023 325.927 261.05 327.701C229.423 329.914 197.703 324.914 169.197 310.728C165.503 308.981 162.623 306.781 158.303 307.994C144.65 310.901 130.863 311.114 116.983 310.288C92.57 307.941 68.41 299.368 48.85 284.421C34.01 273.248 22.3833 258.328 17.5566 240.168C13.9166 228.314 14.0766 216.421 14.9166 204.181C18.0766 178.274 32.89 152.381 55.37 138.581C68.17 130.754 82.8766 128.701 97.6233 130.434C97.53 144.034 97.45 157.154 101.917 170.221C97.73 173.874 91.2766 177.781 89.3566 183.168C87.73 188.808 93.61 194.061 98.9833 191.474C103.797 187.888 107.757 183.288 112.903 180.061C130.223 168.501 151.477 166.194 171.677 169.341C181.663 171.154 190.85 175.141 199.69 180.021C190.357 187.368 181.49 196.328 175.33 206.514C172.463 211.474 175.197 217.594 181.023 218.034C185.383 218.047 186.957 214.088 189.317 211.141C202.463 192.661 222.29 179.448 244.743 175.568C262.53 172.474 282.303 174.194 298.53 182.474C286.97 191.981 276.703 203.594 269.477 216.741C267.583 220.394 265.93 224.448 269.517 227.728C273.29 231.301 278.517 229.781 280.943 225.541C287.103 214.688 294.583 204.781 303.957 196.488C327.063 176.328 361.703 170.568 389.65 183.768C396.57 186.781 402.383 191.341 408.743 195.234C413.61 197.754 419.423 193.408 418.85 188.128C418.103 185.754 416.463 184.168 414.61 182.634C404.61 174.421 392.717 168.514 380.343 164.861C383.57 151.968 383.357 139.048 382.517 125.888C408.25 123.208 434.383 128.874 455.183 144.688Z" fill="white"/>
</svg>
